PathFileType	4	(X/Y/Z)	/Users/itak/Documents/Research/Walk-IL/dataset/trc/00022_00004.trc
DataRate	CameraRate	NumFrames	NumMarkers	Units	OrigDataRate	OrigDataStartFrame	OrigNumFrames
100.000000	100.000000	4	53	mm	100.000000	740	846
Frame#	Time	RPSI			LPSI			L3			STRN			T10			C7			CLAV			RBAK			LBAK			LSHO			LUPA			LAEL			LAOL			LWTS			LWPS			LFRA			LIFD			LHPS			LHTS			RSHO			RUPA			RAEL			RAOL			RWTS			RWPS			RFRA			RIFD			RHTS			RHPS			RBHD			LFHD			RFHD			LBHD			LHIP			RHIP			RASI			LASI			LKNE			LTHI			LANK			LTIP			LTOE			LMT1			LMT5			LHEE			RKNE			RTHI			RANK			RTIP			RTOE			RMT1			RMT5			RHEE			
		X1	Y1	Z1	X2	Y2	Z2	X3	Y3	Z3	X4	Y4	Z4	X5	Y5	Z5	X6	Y6	Z6	X7	Y7	Z7	X8	Y8	Z8	X9	Y9	Z9	X10	Y10	Z10	X11	Y11	Z11	X12	Y12	Z12	X13	Y13	Z13	X14	Y14	Z14	X15	Y15	Z15	X16	Y16	Z16	X17	Y17	Z17	X18	Y18	Z18	X19	Y19	Z19	X20	Y20	Z20	X21	Y21	Z21	X22	Y22	Z22	X23	Y23	Z23	X24	Y24	Z24	X25	Y25	Z25	X26	Y26	Z26	X27	Y27	Z27	X28	Y28	Z28	X29	Y29	Z29	X30	Y30	Z30	X31	Y31	Z31	X32	Y32	Z32	X33	Y33	Z33	X34	Y34	Z34	X35	Y35	Z35	X36	Y36	Z36	X37	Y37	Z37	X38	Y38	Z38	X39	Y39	Z39	X40	Y40	Z40	X41	Y41	Z41	X42	Y42	Z42	X43	Y43	Z43	X44	Y44	Z44	X45	Y45	Z45	X46	Y46	Z46	X47	Y47	Z47	X48	Y48	Z48	X49	Y49	Z49	X50	Y50	Z50	X51	Y51	Z51	X52	Y52	Z52	X53	Y53	Z53	

741	7.4	-14.68867301940918	1081.7080078125	1127.268798828125	-27.07134628295898	1077.13330078125	963.4785766601562	-26.3299446105957	1138.03076171875	1038.781616210938	199.3424987792969	1325.25244140625	1034.64892578125	-50.84712600708008	1281.804931640625	1040.249145507812	3.068964719772339	1548.411987304688	1032.615600585938	158.7253875732422	1451.494140625	1033.568359375	-49.13484191894531	1411.500244140625	1112.846801757812	-17.72603416442871	1509.677368164062	935.4861450195312	82.61745452880859	1514.74658203125	860.5641479492188	43.61028671264648	1393.745727539062	782.7354736328125	27.80063629150391	1178.319702148438	755.3071899414062	-22.01078033447266	1167.472290039062	848.2470092773438	115.3382110595703	923.9326171875	803.2384033203125	35.01658630371094	909.68212890625	768.546142578125	37.09452056884766	1061.7333984375	747.3289184570312	136.9767150878906	735.9204711914062	823.5670166015625	65.14561462402344	819.0585327148438	767.3670654296875	133.0335388183594	826.9679565429688	790.2080078125	82.58822631835938	1531.215576171875	1201.890869140625	69.66323089599609	1463.373901367188	1276.041625976562	36.82509231567383	1194.849609375	1307.872192382812	32.99907302856445	1165.017211914062	1212.514038085938	180.118896484375	941.5594482421875	1282.02685546875	117.6274108886719	921.6807250976562	1346.057861328125	53.20627975463867	1118.989624023438	1325.244873046875	223.9991149902344	758.5031127929688	1271.590942382812	224.8954620361328	837.2908935546875	1295.386596679688	170.4141235351562	825.8828125	1344.902221679688	50.45582580566406	1710.058959960938	1123.23828125	206.9195251464844	1758.306518554688	990.2734375	215.9876861572266	1755.140991210938	1088.614624023438	30.11572456359863	1717.276733398438	980.343505859375	63.36549377441406	974.8628540039062	842.2026977539062	101.6150131225586	962.3317260742188	1219.113159179688	199.483642578125	996.5484008789062	1138.037353515625	180.43505859375	1018.20068359375	904.6443481445312	179.8881988525391	531.77978515625	868.0825805664062	132.2651062011719	668.72216796875	836.5911254882812	-15.12109184265137	65.54582977294922	835.4554443359375	59.70986557006836	306.79833984375	832.8843383789062	184.1299285888672	53.88261032104492	938.4550170898438	123.9098587036133	62.69822692871094	943.8599853515625	109.6171951293945	53.38264846801758	839.8638305664062	-91.91954803466797	81.81746673583984	873.7041015625	135.5248870849609	530.291259765625	1166.436645507812	134.1823577880859	798.4674072265625	1214.148315429688	60.44985198974609	40.52597808837891	1135.267578125	121.4397888183594	406.0192260742188	1165.909912109375	293.9798583984375	46.81607818603516	1097.968872070312	230.7423858642578	52.9801139831543	1067.480590820312	209.5013275146484	41.29407119750977	1161.683715820312	6.588278293609619	42.51042175292969	1088.60009765625	
742	7.41	-13.2717342376709	1081.713623046875	1127.98828125	-25.6136417388916	1077.281982421875	964.162841796875	-24.85573959350586	1138.061767578125	1039.547485351562	201.0058135986328	1325.22412109375	1035.565063476562	-49.19135284423828	1281.882202148438	1041.290161132812	4.799079895019531	1548.455200195312	1033.898559570312	160.4310150146484	1451.49462890625	1034.608154296875	-47.32968139648438	1411.539428710938	1114.11474609375	-16.10636711120605	1509.81689453125	936.7666015625	84.13301849365234	1514.905883789062	861.74072265625	45.03108596801758	1393.99853515625	783.78759765625	29.21592712402344	1178.603759765625	756.1025390625	-20.49873161315918	1167.6064453125	849.0845336914062	116.8194198608398	924.1470947265625	803.5949096679688	36.47136688232422	909.9326782226562	768.9113159179688	38.51390838623047	1062.033203125	747.9337158203125	138.4328460693359	736.1163330078125	823.6447143554688	66.61563873291016	819.330322265625	767.5795288085938	134.4838409423828	827.207763671875	790.4351196289062	84.57926177978516	1531.165771484375	1203.061767578125	71.75444030761719	1463.294067382812	1277.193359375	39.01208877563477	1194.787963867188	1309.04296875	34.88039016723633	1164.981323242188	1213.686157226562	182.2522583007812	941.4862060546875	1282.625122070312	119.9064178466797	921.5516967773438	1346.841796875	55.42158126831055	1118.913208007812	1326.339111328125	226.0304870605469	758.4019775390625	1272.074462890625	227.0459899902344	837.1901245117188	1295.812866210938	172.7330322265625	825.8175659179688	1345.558959960938	51.21982955932617	1709.56005859375	1124.537109375	208.0206451416016	1758.88134765625	992.3590698242188	216.6505889892578	1755.403076171875	1090.798583984375	31.43109130859375	1717.123413085938	981.5919799804688	64.91179656982422	975.0259399414062	842.8634643554688	102.9432525634766	962.1792602539062	1219.696655273438	200.8481903076172	996.4138793945312	1138.749633789062	181.8752746582031	1018.341247558594	905.3916015625	181.1276550292969	532.1781005859375	869.5930786132812	133.5686187744141	668.7999267578125	837.5629272460938	-7.869494438171387	63.72701263427734	836.935546875	63.42961120605469	306.0934753417969	834.2363891601562	192.0366973876953	54.2444953918457	938.93603515625	131.7817535400391	62.46134948730469	944.612060546875	117.0314483642578	53.12680435180664	840.7197875976562	-84.68224334716797	78.96053314208984	875.544189453125	135.8550109863281	530.118896484375	1166.75341796875	135.1531219482422	798.254150390625	1214.664428710938	60.49188613891602	40.57858657836914	1135.209350585938	121.66015625	405.9000854492188	1166.08544921875	294.0345153808594	46.73847198486328	1097.930908203125	230.8096313476562	52.90048217773438	1067.451171875	209.5112762451172	41.2469482421875	1161.68896484375	6.616150856018066	42.53273391723633	1088.557250976562	
743	7.42	-11.87639045715332	1081.70849609375	1128.611450195312	-24.14281463623047	1077.384643554688	964.7449951171875	-23.38790130615234	1138.051391601562	1040.208984375	202.6348724365234	1325.181884765625	1036.418212890625	-47.56401062011719	1281.9208984375	1042.22216796875	6.447055816650391	1548.466430664062	1035.090698242188	162.0792388916016	1451.47900390625	1035.583618164062	-45.59708023071289	1411.528930664062	1115.278198242188	-14.53601169586182	1509.91650390625	937.9544067382812	85.61688995361328	1515.048583984375	862.839599609375	46.44466781616211	1394.228149414062	784.7539672851562	30.65542793273926	1178.868286132812	756.7854614257812	-18.98658180236816	1167.720825195312	849.796875	118.3153381347656	924.345703125	803.8680419921875	37.96114349365234	910.1608276367188	769.1549682617188	39.9640007019043	1062.321533203125	748.42333984375	139.9051818847656	736.2952270507812	823.6353759765625	68.12688446044922	819.5941162109375	767.6851806640625	135.9674682617188	827.43359375	790.5782470703125	86.45497131347656	1531.077026367188	1204.159545898438	73.72250366210938	1463.167236328125	1278.268920898438	41.07858657836914	1194.685424804688	1310.15673828125	36.66716766357422	1164.8994140625	1214.794555664062	184.2817077636719	941.3712768554688	1283.173706054688	122.0808410644531	921.3973999023438	1347.59228515625	57.52944183349609	1118.79345703125	1327.364013671875	227.9527587890625	758.2613525390625	1272.494140625	229.0792388916016	837.0555419921875	1296.189331054688	174.936279296875	825.7112426757812	1346.166137695312	51.95203399658203	1709.0673828125	1125.737670898438	209.1123199462891	1759.398193359375	994.3624877929688	217.2899169921875	1755.606079101562	1092.8955078125	32.72715759277344	1716.9716796875	982.7504272460938	66.50208282470703	975.1366577148438	843.4741821289062	104.2476577758789	962.0313720703125	1220.229736328125	202.1885833740234	996.2708740234375	1139.416870117188	183.3458099365234	1018.444396972656	906.0907592773438	182.2788238525391	532.5491943359375	871.0827026367188	134.8335418701172	668.8278198242188	838.555908203125	-0.9428554177284241	62.0616340637207	838.4234619140625	66.93148803710938	305.4345703125	835.594970703125	199.7654418945312	54.68862915039062	939.101806640625	139.4663238525391	62.29864501953125	945.138916015625	124.1137466430664	53.02767944335938	841.3729858398438	-77.70689392089844	76.24455261230469	877.5285034179688	136.1936798095703	529.9391479492188	1167.04833984375	136.0787963867188	798.0398559570312	1215.14892578125	60.53898239135742	40.64440155029297	1135.135620117188	121.8544158935547	405.7794799804688	1166.23681640625	294.1033630371094	46.63934707641602	1097.885620117188	230.8826293945312	52.80771636962891	1067.41357421875	209.5174560546875	41.18981170654297	1161.693969726562	6.654756546020508	42.55766677856445	1088.508544921875	
744	7.43	-10.50184440612793	1081.695190429688	1129.14404296875	-22.66464042663574	1077.445190429688	965.2356567382812	-21.93087387084961	1138.007080078125	1040.777465820312	204.2281494140625	1325.12890625	1037.210815429688	-45.96640396118164	1281.922729492188	1043.048828125	8.014342308044434	1548.446533203125	1036.188598632812	163.6700134277344	1451.44970703125	1036.49609375	-43.94215774536133	1411.472290039062	1116.328369140625	-13.01022434234619	1509.977783203125	939.0421142578125	87.08147430419922	1515.177856445312	863.860107421875	47.86758422851562	1394.437622070312	785.6324462890625	32.13390731811523	1179.115234375	757.3648681640625	-17.46633720397949	1167.822998046875	850.3881225585938	119.8221740722656	924.5267333984375	804.078369140625	39.48242950439453	910.3720703125	769.2991333007812	41.45323944091797	1062.59765625	748.8126220703125	141.3841857910156	736.4503784179688	823.5606689453125	69.67044067382812	819.8466186523438	767.7049560546875	137.484130859375	827.6406860351562	790.655517578125	88.21170806884766	1530.952758789062	1205.182983398438	75.56197357177734	1462.996337890625	1279.265991210938	43.02253341674805	1194.536376953125	1311.199462890625	38.37324142456055	1164.77001953125	1215.822631835938	186.2076110839844	941.2115478515625	1283.683715820312	124.1508865356445	921.2235107421875	1348.307006835938	59.52888107299805	1118.628051757812	1328.308227539062	229.7594299316406	758.0733642578125	1272.875244140625	230.9911346435547	836.8812255859375	1296.541625976562	177.0124359130859	825.560546875	1346.732055664062	52.65256500244141	1708.586669921875	1126.841796875	210.1991577148438	1759.855590820312	996.288330078125	217.9231872558594	1755.75	1094.89599609375	34.00677108764648	1716.83154296875	983.8182983398438	68.12049102783203	975.1935424804688	844.0433349609375	105.5291061401367	961.8881225585938	1220.720092773438	203.5167999267578	996.121826171875	1140.039184570312	184.8495178222656	1018.510559082031	906.7422485351562	183.3412017822266	532.8919067382812	872.5120239257812	136.0534820556641	668.8134155273438	839.564697265625	5.636908054351807	60.53865814208984	839.9439697265625	70.21285247802734	304.8114624023438	836.9597778320312	207.2830352783203	55.21350860595703	939.0061645507812	146.9162750244141	62.20806121826172	945.4922485351562	130.8368835449219	53.05713653564453	841.8713989257812	-71.004150390625	73.67588043212891	879.6731567382812	136.5480346679688	529.747802734375	1167.322998046875	136.9778747558594	797.8241577148438	1215.604614257812	60.59031677246094	40.72244644165039	1135.046752929688	122.0342025756836	405.659423828125	1166.3681640625	294.1857604980469	46.51921844482422	1097.831787109375	230.9625549316406	52.70530700683594	1067.36865234375	209.5194091796875	41.13273239135742	1161.699340820312	6.702098369598389	42.5833854675293	1088.451904296875	
